solid RailMount
facet normal -1.0 0.0 0.0
  outer loop
    vertex 63.0 35.0 16.0
    vertex 63.0 0.0 10.000000000000002
    vertex 63.0 0.0 16.0
  endloop
endfacet
facet normal -1.0 0.0 0.0
  outer loop
    vertex 63.0 0.0 10.000000000000002
    vertex 63.0 35.0 16.0
    vertex 63.0 6.499999999999999 10.000000000000002
  endloop
endfacet
facet normal -1.0 0.0 0.0
  outer loop
    vertex 63.0 6.499999999999999 10.000000000000002
    vertex 63.0 35.0 16.0
    vertex 63.0 28.500000000000004 10.000000000000002
  endloop
endfacet
facet normal -1.0 0.0 0.0
  outer loop
    vertex 63.0 28.500000000000004 10.000000000000002
    vertex 63.0 35.0 16.0
    vertex 63.0 35.0 10.000000000000002
  endloop
endfacet
facet normal 0.0 0.0 1.0
  outer loop
    vertex 82.0 6.499999999999999 10.000000000000002
    vertex 63.0 28.500000000000004 10.000000000000002
    vertex 63.0 6.499999999999999 10.000000000000002
  endloop
endfacet
facet normal 0.0 0.0 1.0
  outer loop
    vertex 63.0 28.500000000000004 10.000000000000002
    vertex 82.0 6.499999999999999 10.000000000000002
    vertex 82.0 28.500000000000004 10.000000000000002
  endloop
endfacet
facet normal 0.0 0.0 1.0
  outer loop
    vertex 36.99999999999999 6.499999999999999 10.000000000000002
    vertex 18.5 28.500000000000004 10.000000000000002
    vertex 18.5 6.499999999999999 10.000000000000002
  endloop
endfacet
facet normal 0.0 0.0 1.0
  outer loop
    vertex 18.5 28.500000000000004 10.000000000000002
    vertex 36.99999999999999 6.499999999999999 10.000000000000002
    vertex 37.0 28.500000000000004 10.000000000000002
  endloop
endfacet
facet normal 1.0 -4.2289885900513795e-17 -2.819966482547897e-16
  outer loop
    vertex 36.99999999999999 6.499999999999999 10.000000000000002
    vertex 37.0 0.0 16.0
    vertex 37.0 0.0 10.000000000000002
  endloop
endfacet
facet normal 1.0 -4.2289885900513795e-17 -2.819966482547897e-16
  outer loop
    vertex 37.0 0.0 16.0
    vertex 36.99999999999999 6.499999999999999 10.000000000000002
    vertex 37.0 35.0 16.0
  endloop
endfacet
facet normal 1.0 -4.2289885900513795e-17 -2.819966482547897e-16
  outer loop
    vertex 37.0 35.0 16.0
    vertex 36.99999999999999 6.499999999999999 10.000000000000002
    vertex 37.0 28.500000000000004 10.000000000000002
  endloop
endfacet
facet normal 1.0 -4.2289885900513795e-17 -2.819966482547897e-16
  outer loop
    vertex 37.0 35.0 16.0
    vertex 37.0 28.500000000000004 10.000000000000002
    vertex 37.0 35.0 10.000000000000002
  endloop
endfacet
facet normal 0.0 0.0 1.0
  outer loop
    vertex 37.0 0.0 10.000000000000002
    vertex 37.0 28.500000000000004 10.000000000000002
    vertex 36.99999999999999 6.499999999999999 10.000000000000002
  endloop
endfacet
facet normal 0.0 0.0 1.0
  outer loop
    vertex 37.0 28.500000000000004 10.000000000000002
    vertex 37.0 0.0 10.000000000000002
    vertex 63.0 0.0 10.000000000000002
  endloop
endfacet
facet normal 0.0 0.0 1.0
  outer loop
    vertex 37.0 28.500000000000004 10.000000000000002
    vertex 63.0 0.0 10.000000000000002
    vertex 37.0 35.0 10.000000000000002
  endloop
endfacet
facet normal 0.0 0.0 1.0
  outer loop
    vertex 37.0 35.0 10.000000000000002
    vertex 63.0 0.0 10.000000000000002
    vertex 63.0 35.0 10.000000000000002
  endloop
endfacet
facet normal 0.0 0.0 1.0
  outer loop
    vertex 63.0 35.0 10.000000000000002
    vertex 63.0 0.0 10.000000000000002
    vertex 63.0 6.499999999999999 10.000000000000002
  endloop
endfacet
facet normal 0.0 0.0 1.0
  outer loop
    vertex 63.0 35.0 10.000000000000002
    vertex 63.0 6.499999999999999 10.000000000000002
    vertex 63.0 28.500000000000004 10.000000000000002
  endloop
endfacet
facet normal -0.15437688027360957 0.0 0.9880120337511015
  outer loop
    vertex 31.999999999999996 0.0 15.0
    vertex 5.0000000000000036 35.0 10.781250000000002
    vertex 5.0000000000000036 0.0 10.781250000000002
  endloop
endfacet
facet normal -0.15437688027360957 0.0 0.9880120337511015
  outer loop
    vertex 5.0000000000000036 35.0 10.781250000000002
    vertex 31.999999999999996 0.0 15.0
    vertex 31.999999999999996 35.0 15.0
  endloop
endfacet
facet normal 0.0 0.0 1.0
  outer loop
    vertex 68.0 0.0 16.0
    vertex 63.0 35.0 16.0
    vertex 63.0 0.0 16.0
  endloop
endfacet
facet normal 0.0 0.0 1.0
  outer loop
    vertex 63.0 35.0 16.0
    vertex 68.0 0.0 16.0
    vertex 68.0 35.0 16.0
  endloop
endfacet
facet normal 1.0 0.0 0.0
  outer loop
    vertex 68.0 35.0 15.0
    vertex 68.0 0.0 16.0
    vertex 68.0 0.0 15.0
  endloop
endfacet
facet normal 1.0 0.0 0.0
  outer loop
    vertex 68.0 0.0 16.0
    vertex 68.0 35.0 15.0
    vertex 68.0 35.0 16.0
  endloop
endfacet
facet normal 0.0 0.0 1.0
  outer loop
    vertex 37.0 0.0 16.0
    vertex 31.999999999999996 35.0 16.0
    vertex 31.999999999999996 0.0 16.0
  endloop
endfacet
facet normal 0.0 0.0 1.0
  outer loop
    vertex 31.999999999999996 35.0 16.0
    vertex 37.0 0.0 16.0
    vertex 37.0 35.0 16.0
  endloop
endfacet
facet normal -1.0 -0.0 -0.0
  outer loop
    vertex 31.999999999999996 35.0 16.0
    vertex 31.999999999999996 0.0 15.0
    vertex 31.999999999999996 0.0 16.0
  endloop
endfacet
facet normal -1.0 -0.0 -0.0
  outer loop
    vertex 31.999999999999996 0.0 15.0
    vertex 31.999999999999996 35.0 16.0
    vertex 31.999999999999996 35.0 15.0
  endloop
endfacet
facet normal 0.15437688027360966 0.0 0.9880120337511015
  outer loop
    vertex 94.99999999999999 0.0 10.781250000000002
    vertex 68.0 35.0 15.0
    vertex 68.0 0.0 15.0
  endloop
endfacet
facet normal 0.15437688027360966 0.0 0.9880120337511015
  outer loop
    vertex 68.0 35.0 15.0
    vertex 94.99999999999999 0.0 10.781250000000002
    vertex 94.99999999999999 35.0 10.781250000000002
  endloop
endfacet
facet normal 2.5919651517191334e-18 7.80888825343893e-18 -1.0
  outer loop
    vertex 0.042775693130951524 30.652630961100254 7.0
    vertex 3.524958103184872e-15 5.0 7.0
    vertex 3.524958103184872e-15 30.0 7.0
  endloop
endfacet
facet normal 2.5919651517191334e-18 7.80888825343893e-18 -1.0
  outer loop
    vertex 3.524958103184872e-15 5.0 7.0
    vertex 0.042775693130951524 30.652630961100254 7.0
    vertex 0.042775693130952225 4.347369038899743 7.0
  endloop
endfacet
facet normal 2.5919651517191334e-18 7.80888825343893e-18 -1.0
  outer loop
    vertex 0.042775693130952225 4.347369038899743 7.0
    vertex 0.042775693130951524 30.652630961100254 7.0
    vertex 0.17037086855466158 31.294095225512603 7.0
  endloop
endfacet
facet normal 2.5919651517191334e-18 7.80888825343893e-18 -1.0
  outer loop
    vertex 0.042775693130952225 4.347369038899743 7.0
    vertex 0.17037086855466158 31.294095225512603 7.0
    vertex 0.1703708685546623 3.705904774487396 7.0
  endloop
endfacet
facet normal 2.5919651517191334e-18 7.80888825343893e-18 -1.0
  outer loop
    vertex 0.1703708685546623 3.705904774487396 7.0
    vertex 0.17037086855466158 31.294095225512603 7.0
    vertex 0.38060233744356897 31.91341716182545 7.0
  endloop
endfacet
facet normal 2.5919651517191334e-18 7.80888825343893e-18 -1.0
  outer loop
    vertex 0.1703708685546623 3.705904774487396 7.0
    vertex 0.38060233744356897 31.91341716182545 7.0
    vertex 0.38060233744357036 3.0865828381745515 7.0
  endloop
endfacet
facet normal 2.5919651517191334e-18 7.80888825343893e-18 -1.0
  outer loop
    vertex 0.38060233744357036 3.0865828381745515 7.0
    vertex 0.38060233744356897 31.91341716182545 7.0
    vertex 0.6698729810778098 32.5 7.0
  endloop
endfacet
facet normal 2.5919651517191334e-18 7.80888825343893e-18 -1.0
  outer loop
    vertex 0.38060233744357036 3.0865828381745515 7.0
    vertex 0.6698729810778098 32.5 7.0
    vertex 0.6698729810778105 2.5000000000000004 7.0
  endloop
endfacet
facet normal 2.5919651517191334e-18 7.80888825343893e-18 -1.0
  outer loop
    vertex 0.6698729810778105 2.5000000000000004 7.0
    vertex 0.6698729810778098 32.5 7.0
    vertex 1.0332332985438282 33.0438071450436 7.0
  endloop
endfacet
facet normal 2.5919651517191334e-18 7.80888825343893e-18 -1.0
  outer loop
    vertex 0.6698729810778105 2.5000000000000004 7.0
    vertex 1.0332332985438282 33.0438071450436 7.0
    vertex 1.0332332985438282 1.9561928549563967 7.0
  endloop
endfacet
facet normal 2.5919651517191334e-18 7.80888825343893e-18 -1.0
  outer loop
    vertex 1.0332332985438282 1.9561928549563967 7.0
    vertex 1.0332332985438282 33.0438071450436 7.0
    vertex 1.4644660940672662 33.535533905932745 7.0
  endloop
endfacet
facet normal 2.5919651517191334e-18 7.80888825343893e-18 -1.0
  outer loop
    vertex 1.0332332985438282 1.9561928549563967 7.0
    vertex 1.4644660940672662 33.535533905932745 7.0
    vertex 1.4644660940672662 1.4644660940672627 7.0
  endloop
endfacet
facet normal 2.5919651517191334e-18 7.80888825343893e-18 -1.0
  outer loop
    vertex 1.4644660940672662 1.4644660940672627 7.0
    vertex 1.4644660940672662 33.535533905932745 7.0
    vertex 1.9561928549564003 33.96676670145617 7.0
  endloop
endfacet
facet normal 2.5919651517191334e-18 7.80888825343893e-18 -1.0
  outer loop
    vertex 1.4644660940672662 1.4644660940672627 7.0
    vertex 1.9561928549564003 33.96676670145617 7.0
    vertex 1.956192854956401 1.0332332985438246 7.0
  endloop
endfacet
facet normal 2.5919651517191334e-18 7.80888825343893e-18 -1.0
  outer loop
    vertex 1.956192854956401 1.0332332985438246 7.0
    vertex 1.9561928549564003 33.96676670145617 7.0
    vertex 2.5000000000000036 34.3301270189222 7.0
  endloop
endfacet
facet normal 2.5919651517191334e-18 7.80888825343893e-18 -1.0
  outer loop
    vertex 1.956192854956401 1.0332332985438246 7.0
    vertex 2.5000000000000036 34.3301270189222 7.0
    vertex 2.500000000000004 0.669872981077807 7.0
  endloop
endfacet
facet normal 2.5919651517191334e-18 7.80888825343893e-18 -1.0
  outer loop
    vertex 2.500000000000004 0.669872981077807 7.0
    vertex 2.5000000000000036 34.3301270189222 7.0
    vertex 3.086582838174554 34.61939766255644 7.0
  endloop
endfacet
facet normal 2.5919651517191334e-18 7.80888825343893e-18 -1.0
  outer loop
    vertex 2.500000000000004 0.669872981077807 7.0
    vertex 3.086582838174554 34.61939766255644 7.0
    vertex 3.086582838174555 0.38060233744356614 7.0
  endloop
endfacet
facet normal 2.5919651517191334e-18 7.80888825343893e-18 -1.0
  outer loop
    vertex 3.086582838174555 0.38060233744356614 7.0
    vertex 3.086582838174554 34.61939766255644 7.0
    vertex 3.7059047744873994 34.829629131445344 7.0
  endloop
endfacet
facet normal 2.5919651517191334e-18 7.80888825343893e-18 -1.0
  outer loop
    vertex 3.086582838174555 0.38060233744356614 7.0
    vertex 3.7059047744873994 34.829629131445344 7.0
    vertex 3.7059047744874003 0.17037086855465947 7.0
  endloop
endfacet
facet normal 2.5919651517191334e-18 7.80888825343893e-18 -1.0
  outer loop
    vertex 3.7059047744874003 0.17037086855465947 7.0
    vertex 3.7059047744873994 34.829629131445344 7.0
    vertex 4.347369038899746 34.95722430686905 7.0
  endloop
endfacet
facet normal 2.5919651517191334e-18 7.80888825343893e-18 -1.0
  outer loop
    vertex 3.7059047744874003 0.17037086855465947 7.0
    vertex 4.347369038899746 34.95722430686905 7.0
    vertex 4.347369038899746 0.0427756931309487 7.0
  endloop
endfacet
facet normal 2.5919651517191334e-18 7.80888825343893e-18 -1.0
  outer loop
    vertex 4.347369038899746 0.0427756931309487 7.0
    vertex 4.347369038899746 34.95722430686905 7.0
    vertex 5.0000000000000036 35.0 7.0
  endloop
endfacet
facet normal 2.5919651517191334e-18 7.80888825343893e-18 -1.0
  outer loop
    vertex 4.347369038899746 0.0427756931309487 7.0
    vertex 5.0000000000000036 35.0 7.0
    vertex 5.0000000000000036 0.0 7.0
  endloop
endfacet
facet normal 2.5919651517191334e-18 7.80888825343893e-18 -1.0
  outer loop
    vertex 5.0000000000000036 0.0 7.0
    vertex 5.0000000000000036 35.0 7.0
    vertex 94.99999999999999 35.0 7.000000000000001
  endloop
endfacet
facet normal 2.5919651517191334e-18 7.80888825343893e-18 -1.0
  outer loop
    vertex 5.0000000000000036 0.0 7.0
    vertex 94.99999999999999 35.0 7.000000000000001
    vertex 94.99999999999999 0.0 7.0
  endloop
endfacet
facet normal 2.5919651517191334e-18 7.80888825343893e-18 -1.0
  outer loop
    vertex 94.99999999999999 0.0 7.0
    vertex 94.99999999999999 35.0 7.000000000000001
    vertex 95.65263096110024 34.95722430686906 7.000000000000001
  endloop
endfacet
facet normal 2.5919651517191334e-18 7.80888825343893e-18 -1.0
  outer loop
    vertex 94.99999999999999 0.0 7.0
    vertex 95.65263096110024 34.95722430686906 7.000000000000001
    vertex 95.65263096110024 0.04277569313094659 7.0
  endloop
endfacet
facet normal 2.5919651517191334e-18 7.80888825343893e-18 -1.0
  outer loop
    vertex 95.65263096110024 0.04277569313094659 7.0
    vertex 95.65263096110024 34.95722430686906 7.000000000000001
    vertex 96.29409522551259 0.17037086855465594 7.0
  endloop
endfacet
facet normal 2.5919651517191334e-18 7.80888825343893e-18 -1.0
  outer loop
    vertex 96.29409522551259 0.17037086855465594 7.0
    vertex 95.65263096110024 34.95722430686906 7.000000000000001
    vertex 96.29409522551259 34.82962913144535 7.000000000000001
  endloop
endfacet
facet normal 2.5919651517191334e-18 7.80888825343893e-18 -1.0
  outer loop
    vertex 96.29409522551259 0.17037086855465594 7.0
    vertex 96.29409522551259 34.82962913144535 7.000000000000001
    vertex 96.91341716182544 34.61939766255644 7.000000000000001
  endloop
endfacet
facet normal 2.5919651517191334e-18 7.80888825343893e-18 -1.0
  outer loop
    vertex 96.29409522551259 0.17037086855465594 7.0
    vertex 96.91341716182544 34.61939766255644 7.000000000000001
    vertex 96.91341716182544 0.3806023374435633 7.0
  endloop
endfacet
facet normal 2.5919651517191334e-18 7.80888825343893e-18 -1.0
  outer loop
    vertex 96.91341716182544 0.3806023374435633 7.0
    vertex 96.91341716182544 34.61939766255644 7.000000000000001
    vertex 97.49999999999999 34.330127018922205 7.000000000000001
  endloop
endfacet
facet normal 2.5919651517191334e-18 7.80888825343893e-18 -1.0
  outer loop
    vertex 96.91341716182544 0.3806023374435633 7.0
    vertex 97.49999999999999 34.330127018922205 7.000000000000001
    vertex 97.49999999999999 0.6698729810778028 7.0
  endloop
endfacet
facet normal 2.5919651517191334e-18 7.80888825343893e-18 -1.0
  outer loop
    vertex 97.49999999999999 0.6698729810778028 7.0
    vertex 97.49999999999999 34.330127018922205 7.000000000000001
    vertex 98.0438071450436 33.96676670145618 7.000000000000001
  endloop
endfacet
facet normal 2.5919651517191334e-18 7.80888825343893e-18 -1.0
  outer loop
    vertex 97.49999999999999 0.6698729810778028 7.0
    vertex 98.0438071450436 33.96676670145618 7.000000000000001
    vertex 98.0438071450436 1.0332332985438204 7.0
  endloop
endfacet
facet normal 2.5919651517191334e-18 7.80888825343893e-18 -1.0
  outer loop
    vertex 98.0438071450436 1.0332332985438204 7.0
    vertex 98.0438071450436 33.96676670145618 7.000000000000001
    vertex 98.53553390593272 33.535533905932745 7.000000000000001
  endloop
endfacet
facet normal 2.5919651517191334e-18 7.80888825343893e-18 -1.0
  outer loop
    vertex 98.0438071450436 1.0332332985438204 7.0
    vertex 98.53553390593272 33.535533905932745 7.000000000000001
    vertex 98.53553390593272 1.4644660940672585 7.0
  endloop
endfacet
facet normal 2.5919651517191334e-18 7.80888825343893e-18 -1.0
  outer loop
    vertex 98.53553390593272 1.4644660940672585 7.0
    vertex 98.53553390593272 33.535533905932745 7.000000000000001
    vertex 98.96676670145617 33.04380714504361 7.000000000000001
  endloop
endfacet
facet normal 2.5919651517191334e-18 7.80888825343893e-18 -1.0
  outer loop
    vertex 98.53553390593272 1.4644660940672585 7.0
    vertex 98.96676670145617 33.04380714504361 7.000000000000001
    vertex 98.96676670145617 1.956192854956393 7.0
  endloop
endfacet
facet normal 2.5919651517191334e-18 7.80888825343893e-18 -1.0
  outer loop
    vertex 98.96676670145617 1.956192854956393 7.0
    vertex 98.96676670145617 33.04380714504361 7.000000000000001
    vertex 99.33012701892218 32.50000000000001 7.000000000000001
  endloop
endfacet
facet normal 2.5919651517191334e-18 7.80888825343893e-18 -1.0
  outer loop
    vertex 98.96676670145617 1.956192854956393 7.0
    vertex 99.33012701892218 32.50000000000001 7.000000000000001
    vertex 99.33012701892218 2.4999999999999964 7.0
  endloop
endfacet
facet normal 2.5919651517191334e-18 7.80888825343893e-18 -1.0
  outer loop
    vertex 99.33012701892218 2.4999999999999964 7.0
    vertex 99.33012701892218 32.50000000000001 7.000000000000001
    vertex 99.61939766255644 31.913417161825457 7.000000000000001
  endloop
endfacet
facet normal 2.5919651517191334e-18 7.80888825343893e-18 -1.0
  outer loop
    vertex 99.33012701892218 2.4999999999999964 7.0
    vertex 99.61939766255644 31.913417161825457 7.000000000000001
    vertex 99.61939766255642 3.086582838174549 7.0
  endloop
endfacet
facet normal 2.5919651517191334e-18 7.80888825343893e-18 -1.0
  outer loop
    vertex 99.61939766255642 3.086582838174549 7.0
    vertex 99.61939766255644 31.913417161825457 7.000000000000001
    vertex 99.82962913144533 3.7059047744873954 7.0
  endloop
endfacet
facet normal 2.5919651517191334e-18 7.80888825343893e-18 -1.0
  outer loop
    vertex 99.82962913144533 3.7059047744873954 7.0
    vertex 99.61939766255644 31.913417161825457 7.000000000000001
    vertex 99.82962913144533 31.294095225512603 7.000000000000001
  endloop
endfacet
facet normal 2.5919651517191334e-18 7.80888825343893e-18 -1.0
  outer loop
    vertex 99.82962913144533 3.7059047744873954 7.0
    vertex 99.82962913144533 31.294095225512603 7.000000000000001
    vertex 99.95722430686905 30.65263096110026 7.000000000000001
  endloop
endfacet
facet normal 2.5919651517191334e-18 7.80888825343893e-18 -1.0
  outer loop
    vertex 99.82962913144533 3.7059047744873954 7.0
    vertex 99.95722430686905 30.65263096110026 7.000000000000001
    vertex 99.95722430686905 4.347369038899743 7.0
  endloop
endfacet
facet normal 2.5919651517191334e-18 7.80888825343893e-18 -1.0
  outer loop
    vertex 99.95722430686905 4.347369038899743 7.0
    vertex 99.95722430686905 30.65263096110026 7.000000000000001
    vertex 100.0 30.0 7.000000000000001
  endloop
endfacet
facet normal 2.5919651517191334e-18 7.80888825343893e-18 -1.0
  outer loop
    vertex 99.95722430686905 4.347369038899743 7.0
    vertex 100.0 30.0 7.000000000000001
    vertex 100.0 5.0 7.0
  endloop
endfacet
facet normal 0.0 1.0 0.0
  outer loop
    vertex 5.0000000000000036 35.0 10.781250000000002
    vertex 94.99999999999999 35.0 7.000000000000001
    vertex 5.0000000000000036 35.0 7.0
  endloop
endfacet
facet normal 0.0 1.0 0.0
  outer loop
    vertex 94.99999999999999 35.0 7.000000000000001
    vertex 5.0000000000000036 35.0 10.781250000000002
    vertex 37.0 35.0 10.000000000000002
  endloop
endfacet
facet normal 0.0 1.0 0.0
  outer loop
    vertex 37.0 35.0 10.000000000000002
    vertex 5.0000000000000036 35.0 10.781250000000002
    vertex 31.999999999999996 35.0 15.0
  endloop
endfacet
facet normal 0.0 1.0 0.0
  outer loop
    vertex 37.0 35.0 10.000000000000002
    vertex 31.999999999999996 35.0 15.0
    vertex 37.0 35.0 16.0
  endloop
endfacet
facet normal 0.0 1.0 0.0
  outer loop
    vertex 37.0 35.0 16.0
    vertex 31.999999999999996 35.0 15.0
    vertex 31.999999999999996 35.0 16.0
  endloop
endfacet
facet normal 0.0 1.0 0.0
  outer loop
    vertex 94.99999999999999 35.0 7.000000000000001
    vertex 63.0 35.0 10.000000000000002
    vertex 94.99999999999999 35.0 10.781250000000002
  endloop
endfacet
facet normal 0.0 1.0 0.0
  outer loop
    vertex 63.0 35.0 10.000000000000002
    vertex 94.99999999999999 35.0 7.000000000000001
    vertex 37.0 35.0 10.000000000000002
  endloop
endfacet
facet normal 0.0 1.0 0.0
  outer loop
    vertex 94.99999999999999 35.0 10.781250000000002
    vertex 63.0 35.0 10.000000000000002
    vertex 68.0 35.0 15.0
  endloop
endfacet
facet normal 0.0 1.0 0.0
  outer loop
    vertex 68.0 35.0 15.0
    vertex 63.0 35.0 10.000000000000002
    vertex 63.0 35.0 16.0
  endloop
endfacet
facet normal 0.0 1.0 0.0
  outer loop
    vertex 68.0 35.0 15.0
    vertex 63.0 35.0 16.0
    vertex 68.0 35.0 16.0
  endloop
endfacet
facet normal -1.0 0.0 0.0
  outer loop
    vertex 3.524958103184872e-15 30.0 10.781250000000002
    vertex 3.524958103184872e-15 5.0 7.0
    vertex 3.524958103184872e-15 5.0 10.781250000000002
  endloop
endfacet
facet normal -1.0 0.0 0.0
  outer loop
    vertex 3.524958103184872e-15 5.0 7.0
    vertex 3.524958103184872e-15 30.0 10.781250000000002
    vertex 3.524958103184872e-15 30.0 7.0
  endloop
endfacet
facet normal 0.0 0.0 1.0
  outer loop
    vertex 0.042775693130952225 4.347369038899743 10.781250000000002
    vertex 3.524958103184872e-15 30.0 10.781250000000002
    vertex 3.524958103184872e-15 5.0 10.781250000000002
  endloop
endfacet
facet normal 0.0 0.0 1.0
  outer loop
    vertex 3.524958103184872e-15 30.0 10.781250000000002
    vertex 0.042775693130952225 4.347369038899743 10.781250000000002
    vertex 0.042775693130951524 30.652630961100254 10.781250000000002
  endloop
endfacet
facet normal 0.0 0.0 1.0
  outer loop
    vertex 0.042775693130951524 30.652630961100254 10.781250000000002
    vertex 0.042775693130952225 4.347369038899743 10.781250000000002
    vertex 0.17037086855466158 31.294095225512603 10.781250000000002
  endloop
endfacet
facet normal 0.0 0.0 1.0
  outer loop
    vertex 0.17037086855466158 31.294095225512603 10.781250000000002
    vertex 0.042775693130952225 4.347369038899743 10.781250000000002
    vertex 0.1703708685546623 3.705904774487396 10.781250000000002
  endloop
endfacet
facet normal 0.0 0.0 1.0
  outer loop
    vertex 0.17037086855466158 31.294095225512603 10.781250000000002
    vertex 0.1703708685546623 3.705904774487396 10.781250000000002
    vertex 0.38060233744356897 31.91341716182545 10.781250000000002
  endloop
endfacet
facet normal 0.0 0.0 1.0
  outer loop
    vertex 0.38060233744356897 31.91341716182545 10.781250000000002
    vertex 0.1703708685546623 3.705904774487396 10.781250000000002
    vertex 0.38060233744357036 3.0865828381745515 10.781250000000002
  endloop
endfacet
facet normal 0.0 0.0 1.0
  outer loop
    vertex 0.38060233744356897 31.91341716182545 10.781250000000002
    vertex 0.38060233744357036 3.0865828381745515 10.781250000000002
    vertex 0.6698729810778098 32.5 10.781250000000002
  endloop
endfacet
facet normal 0.0 0.0 1.0
  outer loop
    vertex 0.6698729810778098 32.5 10.781250000000002
    vertex 0.38060233744357036 3.0865828381745515 10.781250000000002
    vertex 0.6698729810778105 2.5000000000000004 10.781250000000002
  endloop
endfacet
facet normal 0.0 0.0 1.0
  outer loop
    vertex 0.6698729810778098 32.5 10.781250000000002
    vertex 0.6698729810778105 2.5000000000000004 10.781250000000002
    vertex 1.0332332985438282 33.0438071450436 10.781250000000002
  endloop
endfacet
facet normal 0.0 0.0 1.0
  outer loop
    vertex 1.0332332985438282 33.0438071450436 10.781250000000002
    vertex 0.6698729810778105 2.5000000000000004 10.781250000000002
    vertex 1.0332332985438282 1.9561928549563967 10.781250000000002
  endloop
endfacet
facet normal 0.0 0.0 1.0
  outer loop
    vertex 1.0332332985438282 33.0438071450436 10.781250000000002
    vertex 1.0332332985438282 1.9561928549563967 10.781250000000002
    vertex 1.4644660940672662 1.4644660940672627 10.781250000000002
  endloop
endfacet
facet normal 0.0 0.0 1.0
  outer loop
    vertex 1.0332332985438282 33.0438071450436 10.781250000000002
    vertex 1.4644660940672662 1.4644660940672627 10.781250000000002
    vertex 1.4644660940672662 33.535533905932745 10.781250000000002
  endloop
endfacet
facet normal 0.0 0.0 1.0
  outer loop
    vertex 1.4644660940672662 33.535533905932745 10.781250000000002
    vertex 1.4644660940672662 1.4644660940672627 10.781250000000002
    vertex 1.956192854956401 1.0332332985438246 10.781250000000002
  endloop
endfacet
facet normal 0.0 0.0 1.0
  outer loop
    vertex 1.4644660940672662 33.535533905932745 10.781250000000002
    vertex 1.956192854956401 1.0332332985438246 10.781250000000002
    vertex 1.9561928549564003 33.96676670145617 10.781250000000002
  endloop
endfacet
facet normal 0.0 0.0 1.0
  outer loop
    vertex 1.9561928549564003 33.96676670145617 10.781250000000002
    vertex 1.956192854956401 1.0332332985438246 10.781250000000002
    vertex 2.5000000000000036 34.3301270189222 10.781250000000002
  endloop
endfacet
facet normal 0.0 0.0 1.0
  outer loop
    vertex 2.5000000000000036 34.3301270189222 10.781250000000002
    vertex 1.956192854956401 1.0332332985438246 10.781250000000002
    vertex 2.500000000000004 0.669872981077807 10.781250000000002
  endloop
endfacet
facet normal 0.0 0.0 1.0
  outer loop
    vertex 2.5000000000000036 34.3301270189222 10.781250000000002
    vertex 2.500000000000004 0.669872981077807 10.781250000000002
    vertex 3.086582838174554 34.61939766255644 10.781250000000002
  endloop
endfacet
facet normal 0.0 0.0 1.0
  outer loop
    vertex 3.086582838174554 34.61939766255644 10.781250000000002
    vertex 2.500000000000004 0.669872981077807 10.781250000000002
    vertex 3.086582838174555 0.38060233744356614 10.781250000000002
  endloop
endfacet
facet normal 0.0 0.0 1.0
  outer loop
    vertex 3.086582838174554 34.61939766255644 10.781250000000002
    vertex 3.086582838174555 0.38060233744356614 10.781250000000002
    vertex 3.7059047744873994 34.829629131445344 10.781250000000002
  endloop
endfacet
facet normal 0.0 0.0 1.0
  outer loop
    vertex 3.7059047744873994 34.829629131445344 10.781250000000002
    vertex 3.086582838174555 0.38060233744356614 10.781250000000002
    vertex 3.7059047744874003 0.17037086855465947 10.781250000000002
  endloop
endfacet
facet normal 0.0 0.0 1.0
  outer loop
    vertex 3.7059047744873994 34.829629131445344 10.781250000000002
    vertex 3.7059047744874003 0.17037086855465947 10.781250000000002
    vertex 4.347369038899746 34.95722430686905 10.781250000000002
  endloop
endfacet
facet normal 0.0 0.0 1.0
  outer loop
    vertex 4.347369038899746 34.95722430686905 10.781250000000002
    vertex 3.7059047744874003 0.17037086855465947 10.781250000000002
    vertex 4.347369038899746 0.0427756931309487 10.781250000000002
  endloop
endfacet
facet normal 0.0 0.0 1.0
  outer loop
    vertex 4.347369038899746 34.95722430686905 10.781250000000002
    vertex 4.347369038899746 0.0427756931309487 10.781250000000002
    vertex 5.0000000000000036 35.0 10.781250000000002
  endloop
endfacet
facet normal 0.0 0.0 1.0
  outer loop
    vertex 5.0000000000000036 35.0 10.781250000000002
    vertex 4.347369038899746 0.0427756931309487 10.781250000000002
    vertex 5.0000000000000036 0.0 10.781250000000002
  endloop
endfacet
facet normal -0.9978589232386036 0.06540312923014359 0.0
  outer loop
    vertex 0.042775693130951524 30.652630961100254 10.781250000000002
    vertex 3.524958103184872e-15 30.0 7.0
    vertex 3.524958103184872e-15 30.0 10.781250000000002
  endloop
endfacet
facet normal -0.9978589232386036 0.06540312923014359 0.0
  outer loop
    vertex 3.524958103184872e-15 30.0 7.0
    vertex 0.042775693130951524 30.652630961100254 10.781250000000002
    vertex 0.042775693130951524 30.652630961100254 7.0
  endloop
endfacet
facet normal -0.9807852804032308 0.19509032201612653 0.0
  outer loop
    vertex 0.17037086855466158 31.294095225512603 10.781250000000002
    vertex 0.042775693130951524 30.652630961100254 7.0
    vertex 0.042775693130951524 30.652630961100254 10.781250000000002
  endloop
endfacet
facet normal -0.9807852804032308 0.19509032201612653 0.0
  outer loop
    vertex 0.042775693130951524 30.652630961100254 7.0
    vertex 0.17037086855466158 31.294095225512603 10.781250000000002
    vertex 0.17037086855466158 31.294095225512603 7.0
  endloop
endfacet
facet normal -0.9469301294951061 0.3214394653031607 0.0
  outer loop
    vertex 0.38060233744356897 31.91341716182545 10.781250000000002
    vertex 0.17037086855466158 31.294095225512603 7.0
    vertex 0.17037086855466158 31.294095225512603 10.781250000000002
  endloop
endfacet
facet normal -0.9469301294951061 0.3214394653031607 0.0
  outer loop
    vertex 0.17037086855466158 31.294095225512603 7.0
    vertex 0.38060233744356897 31.91341716182545 10.781250000000002
    vertex 0.38060233744356897 31.91341716182545 7.0
  endloop
endfacet
facet normal -0.8968727415326885 0.4422886902190009 0.0
  outer loop
    vertex 0.6698729810778098 32.5 10.781250000000002
    vertex 0.38060233744356897 31.91341716182545 7.0
    vertex 0.38060233744356897 31.91341716182545 10.781250000000002
  endloop
endfacet
facet normal -0.8968727415326885 0.4422886902190009 0.0
  outer loop
    vertex 0.38060233744356897 31.91341716182545 7.0
    vertex 0.6698729810778098 32.5 10.781250000000002
    vertex 0.6698729810778098 32.5 7.0
  endloop
endfacet
facet normal -0.8314696123025438 0.5555702330196045 0.0
  outer loop
    vertex 1.0332332985438282 33.0438071450436 10.781250000000002
    vertex 0.6698729810778098 32.5 7.0
    vertex 0.6698729810778098 32.5 10.781250000000002
  endloop
endfacet
facet normal -0.8314696123025438 0.5555702330196045 0.0
  outer loop
    vertex 0.6698729810778098 32.5 7.0
    vertex 1.0332332985438282 33.0438071450436 10.781250000000002
    vertex 1.0332332985438282 33.0438071450436 7.0
  endloop
endfacet
facet normal -0.7518398074789799 0.6593458151000658 0.0
  outer loop
    vertex 1.4644660940672662 33.535533905932745 10.781250000000002
    vertex 1.0332332985438282 33.0438071450436 7.0
    vertex 1.0332332985438282 33.0438071450436 10.781250000000002
  endloop
endfacet
facet normal -0.7518398074789799 0.6593458151000658 0.0
  outer loop
    vertex 1.0332332985438282 33.0438071450436 7.0
    vertex 1.4644660940672662 33.535533905932745 10.781250000000002
    vertex 1.4644660940672662 33.535533905932745 7.0
  endloop
endfacet
facet normal -0.6593458151000648 0.7518398074789812 0.0
  outer loop
    vertex 1.4644660940672662 33.535533905932745 10.781250000000002
    vertex 1.9561928549564003 33.96676670145617 7.0
    vertex 1.4644660940672662 33.535533905932745 7.0
  endloop
endfacet
facet normal -0.6593458151000648 0.7518398074789812 0.0
  outer loop
    vertex 1.9561928549564003 33.96676670145617 7.0
    vertex 1.4644660940672662 33.535533905932745 10.781250000000002
    vertex 1.9561928549564003 33.96676670145617 10.781250000000002
  endloop
endfacet
facet normal -0.555570233019607 0.8314696123025421 0.0
  outer loop
    vertex 1.9561928549564003 33.96676670145617 10.781250000000002
    vertex 2.5000000000000036 34.3301270189222 7.0
    vertex 1.9561928549564003 33.96676670145617 7.0
  endloop
endfacet
facet normal -0.555570233019607 0.8314696123025421 0.0
  outer loop
    vertex 2.5000000000000036 34.3301270189222 7.0
    vertex 1.9561928549564003 33.96676670145617 10.781250000000002
    vertex 2.5000000000000036 34.3301270189222 10.781250000000002
  endloop
endfacet
facet normal -0.44228869021899775 0.8968727415326903 0.0
  outer loop
    vertex 2.5000000000000036 34.3301270189222 10.781250000000002
    vertex 3.086582838174554 34.61939766255644 7.0
    vertex 2.5000000000000036 34.3301270189222 7.0
  endloop
endfacet
facet normal -0.44228869021899775 0.8968727415326903 0.0
  outer loop
    vertex 3.086582838174554 34.61939766255644 7.0
    vertex 2.5000000000000036 34.3301270189222 10.781250000000002
    vertex 3.086582838174554 34.61939766255644 10.781250000000002
  endloop
endfacet
facet normal -0.32143946530316486 0.9469301294951047 0.0
  outer loop
    vertex 3.086582838174554 34.61939766255644 10.781250000000002
    vertex 3.7059047744873994 34.829629131445344 7.0
    vertex 3.086582838174554 34.61939766255644 7.0
  endloop
endfacet
facet normal -0.32143946530316486 0.9469301294951047 0.0
  outer loop
    vertex 3.7059047744873994 34.829629131445344 7.0
    vertex 3.086582838174554 34.61939766255644 10.781250000000002
    vertex 3.7059047744873994 34.829629131445344 10.781250000000002
  endloop
endfacet
facet normal -0.19509032201612425 0.9807852804032313 0.0
  outer loop
    vertex 3.7059047744873994 34.829629131445344 10.781250000000002
    vertex 4.347369038899746 34.95722430686905 7.0
    vertex 3.7059047744873994 34.829629131445344 7.0
  endloop
endfacet
facet normal -0.19509032201612425 0.9807852804032313 0.0
  outer loop
    vertex 4.347369038899746 34.95722430686905 7.0
    vertex 3.7059047744873994 34.829629131445344 10.781250000000002
    vertex 4.347369038899746 34.95722430686905 10.781250000000002
  endloop
endfacet
facet normal -0.06540312923014746 0.9978589232386034 0.0
  outer loop
    vertex 4.347369038899746 34.95722430686905 10.781250000000002
    vertex 5.0000000000000036 35.0 7.0
    vertex 4.347369038899746 34.95722430686905 7.0
  endloop
endfacet
facet normal -0.06540312923014746 0.9978589232386034 0.0
  outer loop
    vertex 5.0000000000000036 35.0 7.0
    vertex 4.347369038899746 34.95722430686905 10.781250000000002
    vertex 5.0000000000000036 35.0 10.781250000000002
  endloop
endfacet
facet normal -0.06540312923014431 -0.9978589232386036 4.547007280997019e-33
  outer loop
    vertex 5.0000000000000036 0.0 10.781250000000002
    vertex 4.347369038899746 0.0427756931309487 7.0
    vertex 5.0000000000000036 0.0 7.0
  endloop
endfacet
facet normal -0.06540312923014431 -0.9978589232386036 4.547007280997019e-33
  outer loop
    vertex 4.347369038899746 0.0427756931309487 7.0
    vertex 5.0000000000000036 0.0 10.781250000000002
    vertex 4.347369038899746 0.0427756931309487 10.781250000000002
  endloop
endfacet
facet normal -0.1950903220161284 -0.9807852804032304 -0.0
  outer loop
    vertex 4.347369038899746 0.0427756931309487 10.781250000000002
    vertex 3.7059047744874003 0.17037086855465947 7.0
    vertex 4.347369038899746 0.0427756931309487 7.0
  endloop
endfacet
facet normal -0.1950903220161284 -0.9807852804032304 -0.0
  outer loop
    vertex 3.7059047744874003 0.17037086855465947 7.0
    vertex 4.347369038899746 0.0427756931309487 10.781250000000002
    vertex 3.7059047744874003 0.17037086855465947 10.781250000000002
  endloop
endfacet
facet normal -0.3214394653031602 -0.9469301294951061 -0.0
  outer loop
    vertex 3.7059047744874003 0.17037086855465947 10.781250000000002
    vertex 3.086582838174555 0.38060233744356614 7.0
    vertex 3.7059047744874003 0.17037086855465947 7.0
  endloop
endfacet
facet normal -0.3214394653031602 -0.9469301294951061 -0.0
  outer loop
    vertex 3.086582838174555 0.38060233744356614 7.0
    vertex 3.7059047744874003 0.17037086855465947 10.781250000000002
    vertex 3.086582838174555 0.38060233744356614 10.781250000000002
  endloop
endfacet
facet normal -0.4422886902190016 -0.8968727415326881 -0.0
  outer loop
    vertex 3.086582838174555 0.38060233744356614 10.781250000000002
    vertex 2.500000000000004 0.669872981077807 7.0
    vertex 3.086582838174555 0.38060233744356614 7.0
  endloop
endfacet
facet normal -0.4422886902190016 -0.8968727415326881 -0.0
  outer loop
    vertex 2.500000000000004 0.669872981077807 7.0
    vertex 3.086582838174555 0.38060233744356614 10.781250000000002
    vertex 2.500000000000004 0.669872981077807 10.781250000000002
  endloop
endfacet
facet normal -0.5555702330196027 -0.8314696123025449 -0.0
  outer loop
    vertex 2.500000000000004 0.669872981077807 10.781250000000002
    vertex 1.956192854956401 1.0332332985438246 7.0
    vertex 2.500000000000004 0.669872981077807 7.0
  endloop
endfacet
facet normal -0.5555702330196027 -0.8314696123025449 -0.0
  outer loop
    vertex 1.956192854956401 1.0332332985438246 7.0
    vertex 2.500000000000004 0.669872981077807 10.781250000000002
    vertex 1.956192854956401 1.0332332985438246 10.781250000000002
  endloop
endfacet
facet normal -0.6593458151000686 -0.7518398074789777 -0.0
  outer loop
    vertex 1.956192854956401 1.0332332985438246 10.781250000000002
    vertex 1.4644660940672662 1.4644660940672627 7.0
    vertex 1.956192854956401 1.0332332985438246 7.0
  endloop
endfacet
facet normal -0.6593458151000686 -0.7518398074789777 -0.0
  outer loop
    vertex 1.4644660940672662 1.4644660940672627 7.0
    vertex 1.956192854956401 1.0332332985438246 10.781250000000002
    vertex 1.4644660940672662 1.4644660940672627 10.781250000000002
  endloop
endfacet
facet normal -0.7518398074789773 -0.6593458151000691 -0.0
  outer loop
    vertex 1.0332332985438282 1.9561928549563967 10.781250000000002
    vertex 1.4644660940672662 1.4644660940672627 7.0
    vertex 1.4644660940672662 1.4644660940672627 10.781250000000002
  endloop
endfacet
facet normal -0.7518398074789773 -0.6593458151000691 -0.0
  outer loop
    vertex 1.4644660940672662 1.4644660940672627 7.0
    vertex 1.0332332985438282 1.9561928549563967 10.781250000000002
    vertex 1.0332332985438282 1.9561928549563967 7.0
  endloop
endfacet
facet normal -0.8314696123025452 -0.5555702330196022 -0.0
  outer loop
    vertex 0.6698729810778105 2.5000000000000004 10.781250000000002
    vertex 1.0332332985438282 1.9561928549563967 7.0
    vertex 1.0332332985438282 1.9561928549563967 10.781250000000002
  endloop
endfacet
facet normal -0.8314696123025452 -0.5555702330196022 -0.0
  outer loop
    vertex 1.0332332985438282 1.9561928549563967 7.0
    vertex 0.6698729810778105 2.5000000000000004 10.781250000000002
    vertex 0.6698729810778105 2.5000000000000004 7.0
  endloop
endfacet
facet normal -0.8968727415326886 -0.44228869021900075 -0.0
  outer loop
    vertex 0.38060233744357036 3.0865828381745515 10.781250000000002
    vertex 0.6698729810778105 2.5000000000000004 7.0
    vertex 0.6698729810778105 2.5000000000000004 10.781250000000002
  endloop
endfacet
facet normal -0.8968727415326886 -0.44228869021900075 -0.0
  outer loop
    vertex 0.6698729810778105 2.5000000000000004 7.0
    vertex 0.38060233744357036 3.0865828381745515 10.781250000000002
    vertex 0.38060233744357036 3.0865828381745515 7.0
  endloop
endfacet
facet normal -0.9469301294951055 -0.3214394653031625 -0.0
  outer loop
    vertex 0.1703708685546623 3.705904774487396 10.781250000000002
    vertex 0.38060233744357036 3.0865828381745515 7.0
    vertex 0.38060233744357036 3.0865828381745515 10.781250000000002
  endloop
endfacet
facet normal -0.9469301294951055 -0.3214394653031625 -0.0
  outer loop
    vertex 0.38060233744357036 3.0865828381745515 7.0
    vertex 0.1703708685546623 3.705904774487396 10.781250000000002
    vertex 0.1703708685546623 3.705904774487396 7.0
  endloop
endfacet
facet normal -0.9807852804032308 -0.1950903220161274 -0.0
  outer loop
    vertex 0.042775693130952225 4.347369038899743 10.781250000000002
    vertex 0.1703708685546623 3.705904774487396 7.0
    vertex 0.1703708685546623 3.705904774487396 10.781250000000002
  endloop
endfacet
facet normal -0.9807852804032308 -0.1950903220161274 -0.0
  outer loop
    vertex 0.1703708685546623 3.705904774487396 7.0
    vertex 0.042775693130952225 4.347369038899743 10.781250000000002
    vertex 0.042775693130952225 4.347369038899743 7.0
  endloop
endfacet
facet normal -0.9978589232386036 -0.06540312923014426 0.0
  outer loop
    vertex 3.524958103184872e-15 5.0 10.781250000000002
    vertex 0.042775693130952225 4.347369038899743 7.0
    vertex 0.042775693130952225 4.347369038899743 10.781250000000002
  endloop
endfacet
facet normal -0.9978589232386036 -0.06540312923014426 0.0
  outer loop
    vertex 0.042775693130952225 4.347369038899743 7.0
    vertex 3.524958103184872e-15 5.0 10.781250000000002
    vertex 3.524958103184872e-15 5.0 7.0
  endloop
endfacet
facet normal 0.0 0.0 1.0
  outer loop
    vertex 95.65263096110024 0.04277569313094659 10.781250000000002
    vertex 94.99999999999999 35.0 10.781250000000002
    vertex 94.99999999999999 0.0 10.781250000000002
  endloop
endfacet
facet normal 0.0 0.0 1.0
  outer loop
    vertex 94.99999999999999 35.0 10.781250000000002
    vertex 95.65263096110024 0.04277569313094659 10.781250000000002
    vertex 95.65263096110024 34.95722430686906 10.781250000000002
  endloop
endfacet
facet normal 0.0 0.0 1.0
  outer loop
    vertex 95.65263096110024 34.95722430686906 10.781250000000002
    vertex 95.65263096110024 0.04277569313094659 10.781250000000002
    vertex 96.29409522551259 0.17037086855465594 10.781250000000002
  endloop
endfacet
facet normal 0.0 0.0 1.0
  outer loop
    vertex 95.65263096110024 34.95722430686906 10.781250000000002
    vertex 96.29409522551259 0.17037086855465594 10.781250000000002
    vertex 96.29409522551259 34.82962913144535 10.781250000000002
  endloop
endfacet
facet normal 0.0 0.0 1.0
  outer loop
    vertex 96.29409522551259 34.82962913144535 10.781250000000002
    vertex 96.29409522551259 0.17037086855465594 10.781250000000002
    vertex 96.91341716182544 0.3806023374435633 10.781250000000002
  endloop
endfacet
facet normal 0.0 0.0 1.0
  outer loop
    vertex 96.29409522551259 34.82962913144535 10.781250000000002
    vertex 96.91341716182544 0.3806023374435633 10.781250000000002
    vertex 96.91341716182544 34.61939766255644 10.781250000000002
  endloop
endfacet
facet normal 0.0 0.0 1.0
  outer loop
    vertex 96.91341716182544 34.61939766255644 10.781250000000002
    vertex 96.91341716182544 0.3806023374435633 10.781250000000002
    vertex 97.49999999999999 0.6698729810778028 10.781250000000002
  endloop
endfacet
facet normal 0.0 0.0 1.0
  outer loop
    vertex 96.91341716182544 34.61939766255644 10.781250000000002
    vertex 97.49999999999999 0.6698729810778028 10.781250000000002
    vertex 97.49999999999999 34.330127018922205 10.781250000000002
  endloop
endfacet
facet normal 0.0 0.0 1.0
  outer loop
    vertex 97.49999999999999 34.330127018922205 10.781250000000002
    vertex 97.49999999999999 0.6698729810778028 10.781250000000002
    vertex 98.0438071450436 1.0332332985438204 10.781250000000002
  endloop
endfacet
facet normal 0.0 0.0 1.0
  outer loop
    vertex 97.49999999999999 34.330127018922205 10.781250000000002
    vertex 98.0438071450436 1.0332332985438204 10.781250000000002
    vertex 98.0438071450436 33.96676670145618 10.781250000000002
  endloop
endfacet
facet normal 0.0 0.0 1.0
  outer loop
    vertex 98.0438071450436 33.96676670145618 10.781250000000002
    vertex 98.0438071450436 1.0332332985438204 10.781250000000002
    vertex 98.53553390593272 1.4644660940672585 10.781250000000002
  endloop
endfacet
facet normal 0.0 0.0 1.0
  outer loop
    vertex 98.0438071450436 33.96676670145618 10.781250000000002
    vertex 98.53553390593272 1.4644660940672585 10.781250000000002
    vertex 98.53553390593272 33.535533905932745 10.781250000000002
  endloop
endfacet
facet normal 0.0 0.0 1.0
  outer loop
    vertex 98.53553390593272 33.535533905932745 10.781250000000002
    vertex 98.53553390593272 1.4644660940672585 10.781250000000002
    vertex 98.96676670145617 1.956192854956393 10.781250000000002
  endloop
endfacet
facet normal 0.0 0.0 1.0
  outer loop
    vertex 98.53553390593272 33.535533905932745 10.781250000000002
    vertex 98.96676670145617 1.956192854956393 10.781250000000002
    vertex 98.96676670145617 33.04380714504361 10.781250000000002
  endloop
endfacet
facet normal 0.0 0.0 1.0
  outer loop
    vertex 98.96676670145617 33.04380714504361 10.781250000000002
    vertex 98.96676670145617 1.956192854956393 10.781250000000002
    vertex 99.33012701892218 2.4999999999999964 10.781250000000002
  endloop
endfacet
facet normal 0.0 0.0 1.0
  outer loop
    vertex 98.96676670145617 33.04380714504361 10.781250000000002
    vertex 99.33012701892218 2.4999999999999964 10.781250000000002
    vertex 99.33012701892218 32.50000000000001 10.781250000000002
  endloop
endfacet
facet normal 0.0 0.0 1.0
  outer loop
    vertex 99.33012701892218 32.50000000000001 10.781250000000002
    vertex 99.33012701892218 2.4999999999999964 10.781250000000002
    vertex 99.61939766255642 3.086582838174549 10.781250000000002
  endloop
endfacet
facet normal 0.0 0.0 1.0
  outer loop
    vertex 99.33012701892218 32.50000000000001 10.781250000000002
    vertex 99.61939766255642 3.086582838174549 10.781250000000002
    vertex 99.61939766255644 31.913417161825457 10.781250000000002
  endloop
endfacet
facet normal 0.0 0.0 1.0
  outer loop
    vertex 99.61939766255644 31.913417161825457 10.781250000000002
    vertex 99.61939766255642 3.086582838174549 10.781250000000002
    vertex 99.82962913144533 3.7059047744873954 10.781250000000002
  endloop
endfacet
facet normal 0.0 0.0 1.0
  outer loop
    vertex 99.61939766255644 31.913417161825457 10.781250000000002
    vertex 99.82962913144533 3.7059047744873954 10.781250000000002
    vertex 99.82962913144533 31.294095225512603 10.781250000000002
  endloop
endfacet
facet normal 0.0 0.0 1.0
  outer loop
    vertex 99.82962913144533 31.294095225512603 10.781250000000002
    vertex 99.82962913144533 3.7059047744873954 10.781250000000002
    vertex 99.95722430686905 4.347369038899743 10.781250000000002
  endloop
endfacet
facet normal 0.0 0.0 1.0
  outer loop
    vertex 99.82962913144533 31.294095225512603 10.781250000000002
    vertex 99.95722430686905 4.347369038899743 10.781250000000002
    vertex 99.95722430686905 30.65263096110026 10.781250000000002
  endloop
endfacet
facet normal 0.0 0.0 1.0
  outer loop
    vertex 99.95722430686905 30.65263096110026 10.781250000000002
    vertex 99.95722430686905 4.347369038899743 10.781250000000002
    vertex 100.0 5.0 10.781250000000002
  endloop
endfacet
facet normal 0.0 0.0 1.0
  outer loop
    vertex 99.95722430686905 30.65263096110026 10.781250000000002
    vertex 100.0 5.0 10.781250000000002
    vertex 100.0 30.0 10.781250000000002
  endloop
endfacet
facet normal 0.9807852804032297 -0.19509032201613233 0.0
  outer loop
    vertex 99.95722430686905 4.347369038899743 7.0
    vertex 99.82962913144533 3.7059047744873954 10.781250000000002
    vertex 99.82962913144533 3.7059047744873954 7.0
  endloop
endfacet
facet normal 0.9807852804032297 -0.19509032201613233 0.0
  outer loop
    vertex 99.82962913144533 3.7059047744873954 10.781250000000002
    vertex 99.95722430686905 4.347369038899743 7.0
    vertex 99.95722430686905 4.347369038899743 10.781250000000002
  endloop
endfacet
facet normal 0.9469301294951049 -0.3214394653031644 0.0
  outer loop
    vertex 99.82962913144533 3.7059047744873954 7.0
    vertex 99.61939766255642 3.086582838174549 10.781250000000002
    vertex 99.61939766255642 3.086582838174549 7.0
  endloop
endfacet
facet normal 0.9469301294951049 -0.3214394653031644 0.0
  outer loop
    vertex 99.61939766255642 3.086582838174549 10.781250000000002
    vertex 99.82962913144533 3.7059047744873954 7.0
    vertex 99.82962913144533 3.7059047744873954 10.781250000000002
  endloop
endfacet
facet normal 0.8968727415326906 -0.4422886902189966 0.0
  outer loop
    vertex 99.61939766255642 3.086582838174549 7.0
    vertex 99.33012701892218 2.4999999999999964 10.781250000000002
    vertex 99.33012701892218 2.4999999999999964 7.0
  endloop
endfacet
facet normal 0.8968727415326906 -0.4422886902189966 0.0
  outer loop
    vertex 99.33012701892218 2.4999999999999964 10.781250000000002
    vertex 99.61939766255642 3.086582838174549 7.0
    vertex 99.61939766255642 3.086582838174549 10.781250000000002
  endloop
endfacet
facet normal 0.8314696123025463 -0.5555702330196007 0.0
  outer loop
    vertex 99.33012701892218 2.4999999999999964 7.0
    vertex 98.96676670145617 1.956192854956393 10.781250000000002
    vertex 98.96676670145617 1.956192854956393 7.0
  endloop
endfacet
facet normal 0.8314696123025463 -0.5555702330196007 0.0
  outer loop
    vertex 98.96676670145617 1.956192854956393 10.781250000000002
    vertex 99.33012701892218 2.4999999999999964 7.0
    vertex 99.33012701892218 2.4999999999999964 10.781250000000002
  endloop
endfacet
facet normal 0.7518398074789769 -0.6593458151000694 0.0
  outer loop
    vertex 98.96676670145617 1.956192854956393 7.0
    vertex 98.53553390593272 1.4644660940672585 10.781250000000002
    vertex 98.53553390593272 1.4644660940672585 7.0
  endloop
endfacet
facet normal 0.7518398074789769 -0.6593458151000694 0.0
  outer loop
    vertex 98.53553390593272 1.4644660940672585 10.781250000000002
    vertex 98.96676670145617 1.956192854956393 7.0
    vertex 98.96676670145617 1.956192854956393 10.781250000000002
  endloop
endfacet
facet normal 0.6593458151000702 -0.7518398074789763 0.0
  outer loop
    vertex 98.53553390593272 1.4644660940672585 10.781250000000002
    vertex 98.0438071450436 1.0332332985438204 7.0
    vertex 98.53553390593272 1.4644660940672585 7.0
  endloop
endfacet
facet normal 0.6593458151000702 -0.7518398074789763 0.0
  outer loop
    vertex 98.0438071450436 1.0332332985438204 7.0
    vertex 98.53553390593272 1.4644660940672585 10.781250000000002
    vertex 98.0438071450436 1.0332332985438204 10.781250000000002
  endloop
endfacet
facet normal 0.5555702330195997 -0.831469612302547 0.0
  outer loop
    vertex 98.0438071450436 1.0332332985438204 10.781250000000002
    vertex 97.49999999999999 0.6698729810778028 7.0
    vertex 98.0438071450436 1.0332332985438204 7.0
  endloop
endfacet
facet normal 0.5555702330195997 -0.831469612302547 0.0
  outer loop
    vertex 97.49999999999999 0.6698729810778028 7.0
    vertex 98.0438071450436 1.0332332985438204 10.781250000000002
    vertex 97.49999999999999 0.6698729810778028 10.781250000000002
  endloop
endfacet
facet normal 0.4422886902189958 -0.896872741532691 0.0
  outer loop
    vertex 97.49999999999999 0.6698729810778028 10.781250000000002
    vertex 96.91341716182544 0.3806023374435633 7.0
    vertex 97.49999999999999 0.6698729810778028 7.0
  endloop
endfacet
facet normal 0.4422886902189958 -0.896872741532691 0.0
  outer loop
    vertex 96.91341716182544 0.3806023374435633 7.0
    vertex 97.49999999999999 0.6698729810778028 10.781250000000002
    vertex 96.91341716182544 0.3806023374435633 10.781250000000002
  endloop
endfacet
facet normal 0.3214394653031607 -0.9469301294951061 0.0
  outer loop
    vertex 96.91341716182544 0.3806023374435633 10.781250000000002
    vertex 96.29409522551259 0.17037086855465594 7.0
    vertex 96.91341716182544 0.3806023374435633 7.0
  endloop
endfacet
facet normal 0.3214394653031607 -0.9469301294951061 0.0
  outer loop
    vertex 96.29409522551259 0.17037086855465594 7.0
    vertex 96.91341716182544 0.3806023374435633 10.781250000000002
    vertex 96.29409522551259 0.17037086855465594 10.781250000000002
  endloop
endfacet
facet normal 0.1950903220161255 -0.9807852804032311 0.0
  outer loop
    vertex 96.29409522551259 0.17037086855465594 10.781250000000002
    vertex 95.65263096110024 0.04277569313094659 7.0
    vertex 96.29409522551259 0.17037086855465594 7.0
  endloop
endfacet
facet normal 0.1950903220161255 -0.9807852804032311 0.0
  outer loop
    vertex 95.65263096110024 0.04277569313094659 7.0
    vertex 96.29409522551259 0.17037086855465594 10.781250000000002
    vertex 95.65263096110024 0.04277569313094659 10.781250000000002
  endloop
endfacet
facet normal 0.06540312923013816 0.9978589232386038 1.1099828018094404e-30
  outer loop
    vertex 94.99999999999999 35.0 10.781250000000002
    vertex 95.65263096110024 34.95722430686906 7.000000000000001
    vertex 94.99999999999999 35.0 7.000000000000001
  endloop
endfacet
facet normal 0.06540312923013816 0.9978589232386038 1.1099828018094404e-30
  outer loop
    vertex 95.65263096110024 34.95722430686906 7.000000000000001
    vertex 94.99999999999999 35.0 10.781250000000002
    vertex 95.65263096110024 34.95722430686906 10.781250000000002
  endloop
endfacet
facet normal 0.19509032201612672 0.9807852804032308 0.0
  outer loop
    vertex 95.65263096110024 34.95722430686906 10.781250000000002
    vertex 96.29409522551259 34.82962913144535 7.000000000000001
    vertex 95.65263096110024 34.95722430686906 7.000000000000001
  endloop
endfacet
facet normal 0.19509032201612672 0.9807852804032308 0.0
  outer loop
    vertex 96.29409522551259 34.82962913144535 7.000000000000001
    vertex 95.65263096110024 34.95722430686906 10.781250000000002
    vertex 96.29409522551259 34.82962913144535 10.781250000000002
  endloop
endfacet
facet normal 0.32143946530316453 0.9469301294951047 0.0
  outer loop
    vertex 96.29409522551259 34.82962913144535 10.781250000000002
    vertex 96.91341716182544 34.61939766255644 7.000000000000001
    vertex 96.29409522551259 34.82962913144535 7.000000000000001
  endloop
endfacet
facet normal 0.32143946530316453 0.9469301294951047 0.0
  outer loop
    vertex 96.91341716182544 34.61939766255644 7.000000000000001
    vertex 96.29409522551259 34.82962913144535 10.781250000000002
    vertex 96.91341716182544 34.61939766255644 10.781250000000002
  endloop
endfacet
facet normal 0.4422886902189932 0.8968727415326924 0.0
  outer loop
    vertex 96.91341716182544 34.61939766255644 10.781250000000002
    vertex 97.49999999999999 34.330127018922205 7.000000000000001
    vertex 96.91341716182544 34.61939766255644 7.000000000000001
  endloop
endfacet
facet normal 0.4422886902189932 0.8968727415326924 0.0
  outer loop
    vertex 97.49999999999999 34.330127018922205 7.000000000000001
    vertex 96.91341716182544 34.61939766255644 10.781250000000002
    vertex 97.49999999999999 34.330127018922205 10.781250000000002
  endloop
endfacet
facet normal 0.5555702330196042 0.8314696123025439 0.0
  outer loop
    vertex 97.49999999999999 34.330127018922205 10.781250000000002
    vertex 98.0438071450436 33.96676670145618 7.000000000000001
    vertex 97.49999999999999 34.330127018922205 7.000000000000001
  endloop
endfacet
facet normal 0.5555702330196042 0.8314696123025439 0.0
  outer loop
    vertex 98.0438071450436 33.96676670145618 7.000000000000001
    vertex 97.49999999999999 34.330127018922205 10.781250000000002
    vertex 98.0438071450436 33.96676670145618 10.781250000000002
  endloop
endfacet
facet normal 0.6593458151000708 0.7518398074789759 0.0
  outer loop
    vertex 98.0438071450436 33.96676670145618 10.781250000000002
    vertex 98.53553390593272 33.535533905932745 7.000000000000001
    vertex 98.0438071450436 33.96676670145618 7.000000000000001
  endloop
endfacet
facet normal 0.6593458151000708 0.7518398074789759 0.0
  outer loop
    vertex 98.53553390593272 33.535533905932745 7.000000000000001
    vertex 98.0438071450436 33.96676670145618 10.781250000000002
    vertex 98.53553390593272 33.535533905932745 10.781250000000002
  endloop
endfacet
facet normal 0.7518398074789759 0.6593458151000708 0.0
  outer loop
    vertex 98.53553390593272 33.535533905932745 7.000000000000001
    vertex 98.96676670145617 33.04380714504361 10.781250000000002
    vertex 98.96676670145617 33.04380714504361 7.000000000000001
  endloop
endfacet
facet normal 0.7518398074789759 0.6593458151000708 0.0
  outer loop
    vertex 98.96676670145617 33.04380714504361 10.781250000000002
    vertex 98.53553390593272 33.535533905932745 7.000000000000001
    vertex 98.53553390593272 33.535533905932745 10.781250000000002
  endloop
endfacet
facet normal 0.8314696123025452 0.5555702330196022 0.0
  outer loop
    vertex 98.96676670145617 33.04380714504361 7.000000000000001
    vertex 99.33012701892218 32.50000000000001 10.781250000000002
    vertex 99.33012701892218 32.50000000000001 7.000000000000001
  endloop
endfacet
facet normal 0.8314696123025452 0.5555702330196022 0.0
  outer loop
    vertex 99.33012701892218 32.50000000000001 10.781250000000002
    vertex 98.96676670145617 33.04380714504361 7.000000000000001
    vertex 98.96676670145617 33.04380714504361 10.781250000000002
  endloop
endfacet
facet normal 0.8968727415326838 0.4422886902190105 0.0
  outer loop
    vertex 99.33012701892218 32.50000000000001 7.000000000000001
    vertex 99.61939766255644 31.913417161825457 10.781250000000002
    vertex 99.61939766255644 31.913417161825457 7.000000000000001
  endloop
endfacet
facet normal 0.8968727415326838 0.4422886902190105 0.0
  outer loop
    vertex 99.61939766255644 31.913417161825457 10.781250000000002
    vertex 99.33012701892218 32.50000000000001 7.000000000000001
    vertex 99.33012701892218 32.50000000000001 10.781250000000002
  endloop
endfacet
facet normal 0.9469301294951109 0.32143946530314643 0.0
  outer loop
    vertex 99.61939766255644 31.913417161825457 7.000000000000001
    vertex 99.82962913144533 31.294095225512603 10.781250000000002
    vertex 99.82962913144533 31.294095225512603 7.000000000000001
  endloop
endfacet
facet normal 0.9469301294951109 0.32143946530314643 0.0
  outer loop
    vertex 99.82962913144533 31.294095225512603 10.781250000000002
    vertex 99.61939766255644 31.913417161825457 7.000000000000001
    vertex 99.61939766255644 31.913417161825457 10.781250000000002
  endloop
endfacet
facet normal 0.9807852804032295 0.19509032201613338 0.0
  outer loop
    vertex 99.82962913144533 31.294095225512603 7.000000000000001
    vertex 99.95722430686905 30.65263096110026 10.781250000000002
    vertex 99.95722430686905 30.65263096110026 7.000000000000001
  endloop
endfacet
facet normal 0.9807852804032295 0.19509032201613338 0.0
  outer loop
    vertex 99.95722430686905 30.65263096110026 10.781250000000002
    vertex 99.82962913144533 31.294095225512603 7.000000000000001
    vertex 99.82962913144533 31.294095225512603 10.781250000000002
  endloop
endfacet
facet normal 0.9978589232386034 0.06540312923014731 -4.512683323733716e-30
  outer loop
    vertex 99.95722430686905 30.65263096110026 7.000000000000001
    vertex 100.0 30.0 10.781250000000002
    vertex 100.0 30.0 7.000000000000001
  endloop
endfacet
facet normal 0.9978589232386034 0.06540312923014731 -4.512683323733716e-30
  outer loop
    vertex 100.0 30.0 10.781250000000002
    vertex 99.95722430686905 30.65263096110026 7.000000000000001
    vertex 99.95722430686905 30.65263096110026 10.781250000000002
  endloop
endfacet
facet normal 0.0 -1.0 0.0
  outer loop
    vertex 94.99999999999999 0.0 10.781250000000002
    vertex 5.0000000000000036 0.0 7.0
    vertex 94.99999999999999 0.0 7.0
  endloop
endfacet
facet normal 0.0 -1.0 0.0
  outer loop
    vertex 5.0000000000000036 0.0 7.0
    vertex 94.99999999999999 0.0 10.781250000000002
    vertex 63.0 0.0 10.000000000000002
  endloop
endfacet
facet normal 0.0 -1.0 0.0
  outer loop
    vertex 63.0 0.0 10.000000000000002
    vertex 94.99999999999999 0.0 10.781250000000002
    vertex 68.0 0.0 15.0
  endloop
endfacet
facet normal 0.0 -1.0 0.0
  outer loop
    vertex 63.0 0.0 10.000000000000002
    vertex 68.0 0.0 15.0
    vertex 63.0 0.0 16.0
  endloop
endfacet
facet normal 0.0 -1.0 0.0
  outer loop
    vertex 63.0 0.0 16.0
    vertex 68.0 0.0 15.0
    vertex 68.0 0.0 16.0
  endloop
endfacet
facet normal 0.0 -1.0 0.0
  outer loop
    vertex 5.0000000000000036 0.0 7.0
    vertex 37.0 0.0 10.000000000000002
    vertex 5.0000000000000036 0.0 10.781250000000002
  endloop
endfacet
facet normal 0.0 -1.0 0.0
  outer loop
    vertex 37.0 0.0 10.000000000000002
    vertex 5.0000000000000036 0.0 7.0
    vertex 63.0 0.0 10.000000000000002
  endloop
endfacet
facet normal 0.0 -1.0 0.0
  outer loop
    vertex 5.0000000000000036 0.0 10.781250000000002
    vertex 37.0 0.0 10.000000000000002
    vertex 31.999999999999996 0.0 15.0
  endloop
endfacet
facet normal 0.0 -1.0 0.0
  outer loop
    vertex 31.999999999999996 0.0 15.0
    vertex 37.0 0.0 10.000000000000002
    vertex 37.0 0.0 16.0
  endloop
endfacet
facet normal 0.0 -1.0 0.0
  outer loop
    vertex 31.999999999999996 0.0 15.0
    vertex 37.0 0.0 16.0
    vertex 31.999999999999996 0.0 16.0
  endloop
endfacet
facet normal 0.06540312923014145 -0.9978589232386038 7.275211649594913e-32
  outer loop
    vertex 95.65263096110024 0.04277569313094659 10.781250000000002
    vertex 94.99999999999999 0.0 7.0
    vertex 95.65263096110024 0.04277569313094659 7.0
  endloop
endfacet
facet normal 0.06540312923014145 -0.9978589232386038 7.275211649594913e-32
  outer loop
    vertex 94.99999999999999 0.0 7.0
    vertex 95.65263096110024 0.04277569313094659 10.781250000000002
    vertex 94.99999999999999 0.0 10.781250000000002
  endloop
endfacet
facet normal 1.0 0.0 0.0
  outer loop
    vertex 100.0 30.0 7.000000000000001
    vertex 100.0 5.0 10.781250000000002
    vertex 100.0 5.0 7.0
  endloop
endfacet
facet normal 1.0 0.0 0.0
  outer loop
    vertex 100.0 5.0 10.781250000000002
    vertex 100.0 30.0 7.000000000000001
    vertex 100.0 30.0 10.781250000000002
  endloop
endfacet
facet normal 0.9978589232386034 -0.06540312923014746 0.0
  outer loop
    vertex 100.0 5.0 7.0
    vertex 99.95722430686905 4.347369038899743 10.781250000000002
    vertex 99.95722430686905 4.347369038899743 7.0
  endloop
endfacet
facet normal 0.9978589232386034 -0.06540312923014746 0.0
  outer loop
    vertex 99.95722430686905 4.347369038899743 10.781250000000002
    vertex 100.0 5.0 7.0
    vertex 100.0 5.0 10.781250000000002
  endloop
endfacet
endsolid RailMount
